# xmcd
#
# Track frame offsets:
#	150
#	18084
#	34096
#	48769
#	65332
#	83563
#	101454
#	114924
#	128827
#	145530
#	162084
#	182493
#	199196
#	216602
#	234316
#	242587
#	259918
#	276675
#
# Disc length: 3869 seconds
#
# Revision: 1
# Processed by: cddbd v1.4PL0 Copyright (c) Steve Scherf et al.
# Submitted via: audiograbber 1.82.02
#
DISCID=f00f1b12
DTITLE=Various Artist - Hott Country 087
DYEAR=2003
DGENRE=Country
TTITLE0=Terri Clark - Three Mississippi
TTITLE1=Lonestar - My Front Porch Looking In
TTITLE2=Aaron Lines - Love Changes Everything
TTITLE3=Emerson Drive - Only God ( Could Stop Me Loving You )
TTITLE4=Nickelcreek - Speak
TTITLE5=Darryl Worley - Have You Forgotten
TTITLE6=Tracy Byrd Feat Andy Griggs, Montgomery Gentry and Blake Shelton - Truth 
TTITLE6=About Men
TTITLE7=Derailers - Genuine
TTITLE8=Chris Cummings - Pamela Anderson Is In My Bedroom
TTITLE9=Vince Gill - Someday
TTITLE10=Trace Adkins - Then They Do
TTITLE11=Jennifer Hanson - This Far Gone
TTITLE12=Roseanne Cash - Rules Of Travel
TTITLE13=Brad Martin - One Of These Days
TTITLE14=Rodney Carrington - Don't Look Now
TTITLE15=Mark Wills - When You Think Of Me
TTITLE16=Shane Nicholson Feat Kasey Chambers - Designed To Fade
TTITLE17=Blue Rodeo - Stage Door
EXTD=
EXTT0=
EXTT1=
EXTT2=
EXTT3=
EXTT4=
EXTT5=
EXTT6=
EXTT7=
EXTT8=
EXTT9=
EXTT10=
EXTT11=
EXTT12=
EXTT13=
EXTT14=
EXTT15=
EXTT16=
EXTT17=
PLAYORDER=
